name Walk3.mot
datacolumns 19
datarows 12
range 2.23600000 2.24700000
endheader

                time	   L_ground_force_vx	   L_ground_force_vy	   L_ground_force_vz	   L_ground_force_px	   L_ground_force_py	   L_ground_force_pz	   R_ground_force_vx	   R_ground_force_vy	   R_ground_force_vz	   R_ground_force_px	   R_ground_force_py	   R_ground_force_pz	   L_ground_torque_x	   L_ground_torque_y	   L_ground_torque_z	   R_ground_torque_x	   R_ground_torque_y	   R_ground_torque_z	
          2.23600000	         46.79051213	        182.49730397	         14.83981422	          0.22368987	          0.00000000	          0.07390497	          0.00000000	          0.00000000	          0.00000000	          0.00000000	          0.00000000	          0.00000000	          0.00000000	        -12.33586622	          0.00000000	          0.00000000	          0.00000000	          0.00000000	
          2.23700000	         42.16772046	        171.54106252	         14.48220442	          0.22438890	          0.00000000	          0.07409104	          0.00000000	          0.00000000	          0.00000000	          0.00000000	          0.00000000	          0.00000000	          0.00000000	        -11.49225599	          0.00000000	          0.00000000	          0.00000000	          0.00000000	
          2.23800000	         37.72193129	        160.58753506	         13.94715297	          0.22518834	          0.00000000	          0.07426873	          0.00000000	          0.00000000	          0.00000000	          0.00000000	          0.00000000	          0.00000000	          0.00000000	        -10.57940901	          0.00000000	          0.00000000	          0.00000000	          0.00000000	
          2.23900000	         33.56022824	        149.57768525	         13.25133620	          0.22608437	          0.00000000	          0.07429640	          0.00000000	          0.00000000	          0.00000000	          0.00000000	          0.00000000	          0.00000000	          0.00000000	         -9.63364685	          0.00000000	          0.00000000	          0.00000000	          0.00000000	
          2.24000000	         29.70671578	        138.57322355	         12.44257702	          0.22711491	          0.00000000	          0.07417545	          0.00000000	          0.00000000	          0.00000000	          0.00000000	          0.00000000	          0.00000000	          0.00000000	         -8.72284686	          0.00000000	          0.00000000	          0.00000000	          0.00000000	
          2.24100000	         26.17941803	        127.71641118	         11.59037118	          0.22827918	          0.00000000	          0.07399488	          0.00000000	          0.00000000	          0.00000000	          0.00000000	          0.00000000	          0.00000000	          0.00000000	         -7.89955008	          0.00000000	          0.00000000	          0.00000000	          0.00000000	
          2.24200000	         22.99370707	        117.19923989	         10.73683330	          0.22957013	          0.00000000	          0.07387048	          0.00000000	          0.00000000	          0.00000000	          0.00000000	          0.00000000	          0.00000000	          0.00000000	         -7.17695932	          0.00000000	          0.00000000	          0.00000000	          0.00000000	
          2.24300000	         20.12351482	        107.20654434	          9.87828704	          0.23105537	          0.00000000	          0.07394747	          0.00000000	          0.00000000	          0.00000000	          0.00000000	          0.00000000	          0.00000000	          0.00000000	         -6.54090962	          0.00000000	          0.00000000	          0.00000000	          0.00000000	
          2.24400000	         17.53849979	         97.86869130	          9.01785727	          0.23282743	          0.00000000	          0.07434075	          0.00000000	          0.00000000	          0.00000000	          0.00000000	          0.00000000	          0.00000000	          0.00000000	         -5.97540781	          0.00000000	          0.00000000	          0.00000000	          0.00000000	
          2.24500000	         15.23027819	         89.26949396	          8.17995368	          0.23479827	          0.00000000	          0.07497247	          0.00000000	          0.00000000	          0.00000000	          0.00000000	          0.00000000	          0.00000000	          0.00000000	         -5.47024780	          0.00000000	          0.00000000	          0.00000000	          0.00000000	
          2.24600000	         13.16814177	         81.46126050	          7.36470738	          0.23656543	          0.00000000	          0.07555155	          0.00000000	          0.00000000	          0.00000000	          0.00000000	          0.00000000	          0.00000000	          0.00000000	         -5.01230445	          0.00000000	          0.00000000	          0.00000000	          0.00000000	
          2.24700000	         11.28562599	         74.47348325	          6.54947985	          0.23768573	          0.00000000	          0.07589085	          0.00000000	          0.00000000	          0.00000000	          0.00000000	          0.00000000	          0.00000000	          0.00000000	         -4.58488102	          0.00000000	          0.00000000	          0.00000000	          0.00000000	
